# xmcd CD database file
#
# Track frame offsets:
#	150
#	7870
#	32692
#	58707
#	68107
#	91635
#	113495
#	153860
#	181092
#	208492
#	227480
#	244955
#	274362
#	305070
#
# Disc length: 4444 seconds
#
# Revision: 1
# Processed by: cddbd v1.5PL3 Copyright (c) Steve Scherf et al.
# Submitted via: CDex 1.51
#
DISCID=b2115a0e
DTITLE=Various Artist - Lounge Story 2
DYEAR=2003
DGENRE=Jazz
TTITLE0=Moondog, Lement I - Bird's Lament
TTITLE1=Klement Julienne - Mannix
TTITLE2=Soulscape - Love
TTITLE3=Carol Ventura - I want to be with You
TTITLE4=Eric Pierre Feat. Ladygatica - Channel Zero [Shade of Soul Remix]
TTITLE5=Patchwork - Summertime
TTITLE6=Eddy and Duss Meet Lilian Terry - Round About Midnight
TTITLE7=Nu Tropic - Pascalito's Theme
TTITLE8=John Beltran - Heaven and Earth [Remix]
TTITLE9=Metropilitan Jazz Affair - Navaronne
TTITLE10=Hajime Yoshizawa - I am with You [Radio Edit]
TTITLE11=Povo - Shihab's Habit
TTITLE12=Truby Trio - High Jazz [Nicola Conte Remix]
TTITLE13=Colorblind - B.Erotica
EXTD=YEAR: 2003
EXTT0=
EXTT1=
EXTT2=
EXTT3=
EXTT4=
EXTT5=
EXTT6=
EXTT7=
EXTT8=
EXTT9=
EXTT10=
EXTT11=
EXTT12=
EXTT13=
PLAYORDER=
